# xmcd CD database file
#
# Track frame offsets:
#	150
#	21972
#	39929
#	54817
#	72994
#	88212
#	105492
#	121827
#	144355
#	162703
#	182023
#	209171
#	226410
#	247080
#	277970
#	296215
#
# Disc length: 4208 seconds
#
# Revision: 0
# Processed by: cddbd v1.5.1PL0 Copyright (c) Steve Scherf et al.
# Submitted via: CDex 1.51
#
DISCID=ed106e10
DTITLE=Fruko Y Sus Tesos - El Preso
DYEAR=1900
DGENRE=Salsa
TTITLE0=El Preso
TTITLE1=El Ausente
TTITLE2=El Caminante
TTITLE3=El Cocinero Mayor
TTITLE4=El Patillero
TTITLE5=Yo Soy El Punto Cubano
TTITLE6=Tania
TTITLE7=Los Charcos
TTITLE8=Manyoma
TTITLE9=El Negro Chombo
TTITLE10=Los Patulekos
TTITLE11=LLoviendo
TTITLE12=El Arbol
TTITLE13=Mosaíco Campesino
TTITLE14=Charanga Campesina
TTITLE15=La Borincana
EXTD=
EXTT0=
EXTT1=
EXTT2=
EXTT3=
EXTT4=
EXTT5=
EXTT6=
EXTT7=
EXTT8=
EXTT9=
EXTT10=
EXTT11=
EXTT12=
EXTT13=
EXTT14=
EXTT15=
PLAYORDER=
